<svg xmlns="http://www.w3.org/2000/svg" width="24" height="24" viewBox="0 0 496 512" fill="white">
    <path d="M248 8C111 8 0 119 0 256s111 248 248 248 248-111 248-248S385 8 248 8zm121.1 365.4c-4.1 6.8-12.9 9-19.8 4.9-54.2-32.6-122.5-40-203.1-23.5-7.9 1.7-15.6-3.4-17.3-11.3s3.4-15.6 11.3-17.3c88.2-18.4 165.4-9.9 226.8 27.3 6.9 4.2 9.1 13 4.9 19.9zm27.6-61.5c-5.1 8.4-16 11.2-24.5 6.1-62.1-37.3-156.7-48.1-229.5-28.2-9.3 2.6-19-2.7-21.6-12s2.7-19 12-21.6c83.5-23.2 190.5-11.3 261.4 33.3 8.4 5.1 11.2 16.1 6.2 24.4zm2.3-65.3c-73.1-43.2-194.3-47.1-265.1-27.6-10.9 3-22.3-3.2-25.3-14.1s3.2-22.3 14.1-25.3c82.5-22.8 218.9-18.4 301.4 32.7 9.7 5.8 12.9 18.4 7.1 28.1-5.9 9.7-18.5 12.9-28.2 7.1z"/>
  </svg>

