<svg viewBox="0 0 24 24" fill="white" xmlns="http://www.w3.org/2000/svg" role="img" aria-hidden="true">
  <path d="M23 3a10.9 10.9 0 0 1-3.14 1.53A4.48 4.48 0 0 0 22.4.36a9.1 9.1 0 0 1-2.88 1.1A4.52 4.52 0 0 0 16.11 0c-2.5 0-4.52 2.1-4.52 4.7 0 .37.03.73.1 1.08A12.94 12.94 0 0 1 1.64.88a4.77 4.77 0 0 0-.61 2.37c0 1.64.8 3.09 2.02 3.94A4.48 4.48 0 0 1 .96 6v.05c0 2.3 1.57 4.22 3.65 4.65a4.52 4.52 0 0 1-2.05.08c.58 1.9 2.26 3.29 4.25 3.33A9.05 9.05 0 0 1 0 19.54 12.86 12.86 0 0 0 6.92 21c8.3 0 12.84-7.14 12.84-13.33 0-.2 0-.39-.01-.58A9.58 9.58 0 0 0 23 3z"/>
</svg>
